 <svg version="1.0" xmlns="http://www.w3.org/2000/svg" width="700.000000pt" height="636.000000pt" viewBox="0 0 700.000000 636.000000" preserveAspectRatio="xMidYMid meet">
<metadata>
</metadata>
<g transform="translate(0.000000,636.000000) scale(0.100000,-0.100000)" fill="#000000" stroke="none">
<path d="M1330 4216 c-164 -30 -246 -119 -305 -331 -10 -33 -23 -78 -30 -100
-7 -22 -21 -67 -30 -100 -9 -33 -21 -73 -26 -90 -16 -55 -59 -200 -74 -250 -8
-27 -40 -135 -70 -240 -30 -104 -66 -226 -79 -270 -13 -44 -31 -107 -41 -140
-10 -33 -28 -94 -40 -135 -13 -41 -31 -102 -40 -135 -10 -33 -28 -94 -41 -135
-13 -41 -24 -85 -24 -97 l0 -23 294 0 c313 0 308 -1 319 50 5 23 31 119 73
270 19 67 37 134 114 425 12 44 27 103 35 130 7 28 26 102 40 165 37 155 48
193 60 196 6 2 45 -68 88 -154 42 -86 99 -197 125 -247 58 -108 157 -295 225
-425 148 -284 209 -370 290 -411 84 -43 305 -39 383 6 49 29 121 107 153 168
43 78 114 212 146 272 18 33 46 85 62 115 96 173 323 622 323 638 0 10 33 42
42 42 4 0 9 -19 13 -42 7 -42 11 -60 42 -183 22 -88 56 -217 78 -295 14 -48
40 -142 56 -200 5 -19 27 -102 49 -185 22 -82 46 -172 54 -200 8 -27 17 -64
21 -82 3 -17 12 -36 19 -42 9 -8 152 -10 462 -9 l449 3 0 423 c0 286 3 422 10
422 6 0 33 -21 60 -46 124 -114 395 -352 675 -593 99 -85 120 -104 183 -160
l57 -51 460 0 c272 0 460 4 460 9 0 5 -19 24 -42 43 -24 18 -52 40 -63 50 -11
9 -78 62 -150 119 -71 56 -150 119 -175 139 -244 199 -638 510 -752 592 -131
96 -165 127 -142 135 38 13 794 564 1069 780 17 13 65 49 108 80 42 31 77 60
77 65 0 4 -198 8 -440 8 l-439 0 -58 -47 c-32 -26 -60 -49 -63 -53 -3 -3 -144
-123 -315 -267 -302 -254 -411 -349 -466 -405 -56 -59 -55 -65 -55 370 l1 397
-307 3 -308 2 -6 -24 c-10 -40 2 -578 14 -616 6 -19 18 -73 27 -120 9 -47 21
-103 26 -125 5 -22 13 -60 18 -85 5 -25 17 -81 26 -125 43 -200 65 -326 64
-355 -1 -21 -2 -21 -6 -5 -3 11 -11 34 -17 50 -7 17 -21 57 -30 90 -10 33 -23
80 -31 105 -12 43 -34 120 -57 205 -6 22 -16 58 -23 80 -7 22 -21 67 -30 100
-9 33 -20 71 -25 85 -4 14 -16 54 -25 90 -10 36 -28 99 -40 140 -13 41 -30
104 -40 140 -44 165 -74 233 -129 296 -112 130 -358 144 -495 28 -39 -32 -105
-125 -156 -219 -52 -96 -171 -308 -211 -375 -17 -30 -41 -71 -51 -90 -11 -19
-35 -62 -53 -95 -18 -33 -44 -77 -57 -97 -12 -21 -23 -39 -23 -41 0 -2 -29
-57 -65 -122 -36 -65 -80 -149 -98 -187 -20 -42 -37 -67 -46 -66 -8 2 -39 53
-70 113 -31 61 -71 136 -89 168 -18 31 -45 81 -61 110 -16 28 -52 92 -80 141
-28 49 -51 90 -51 92 0 2 -18 33 -40 69 -22 36 -40 67 -40 69 0 2 -29 54 -65
116 -36 62 -65 114 -65 115 0 1 -30 54 -66 116 -97 170 -176 239 -289 254 -27
4 -57 8 -65 10 -8 1 -44 -2 -80 -9z"></path>
</g>
</svg>